<?xml version="1.0" encoding="UTF-8" standalone="no"?>
<!-- Created with Inkscape (http://www.inkscape.org/) -->

<svg
   width="211.7mm"
   height="211.70001mm"
   viewBox="0 0 211.7 211.70001"
   version="1.1"
   id="svg1"
   xml:space="preserve"
   xmlns="http://www.w3.org/2000/svg"
   xmlns:svg="http://www.w3.org/2000/svg"><defs
     id="defs1" /><g
     id="layer1"
     transform="translate(0.85000001,0.8500001)"><rect
       style="display:inline;fill:#000000;fill-opacity:1;stroke:#000000;stroke-width:1.7;stroke-linecap:round;stroke-linejoin:round;stroke-opacity:1"
       id="rect1"
       width="210"
       height="210"
       x="0"
       y="0"
       ry="32.204884" /><g
       id="g8"
       transform="matrix(0.7081823,0,0,0.7081823,34.225391,25.023869)"
       style="stroke-linejoin:miter"><g
         id="g7"
         style="display:inline;stroke:#ffffff;stroke-linejoin:miter;stroke-opacity:1"
         transform="matrix(0.90022072,0,0,0.90022072,3.5577387,22.792259)"><circle
           style="fill:#000000;fill-opacity:1;stroke:#ffffff;stroke-width:9.9;stroke-linecap:round;stroke-linejoin:miter;stroke-dasharray:none;stroke-opacity:1"
           id="path1"
           cx="105"
           cy="105"
           r="83.838043" /><path
           id="svg_path_edges"
           d="m 121.06838,21.161957 24.77245,47.500722 M 105,21.161957 96.80347,76.119254 m 80.78608,-14.497726 8.21323,21.023881 m -8.21323,-21.023881 -5.58414,4.89953 M 41.592357,50.152135 24.182106,82.700099 M 172.00541,66.521058 145.84083,68.662679 M 41.592357,50.152135 45.47714,67.059187 m 126.52827,-0.538129 4.2431,26.865082 m -30.40768,-24.723461 -5.8514,21.910256 M 45.47714,67.059187 71.06278,86.214633 M 45.47714,67.059187 28.3337,107.24788 M 185.80278,82.645409 176.24851,93.38614 M 24.182106,82.700099 28.3337,107.24788 M 96.80347,76.119326 129.28231,95.900339 M 96.80347,76.119328 83.46102,87.6831 M 71.06278,86.214633 49.16671,112.53199 m 21.89607,-26.317357 12.39824,1.468393 m 92.78749,5.703114 -6.60268,14.12554 M 83.46102,87.683026 86.02195,103.42563 m 53.96748,-12.852695 29.6564,16.938745 m -29.6564,-16.938745 -10.70712,5.327332 m 0,0 -3.04205,9.171013 m -40.21831,-1.64565 23.72948,14.14782 M 86.02195,103.42563 73.00906,129.76952 m 53.2312,-24.69824 -16.48883,12.50217 m 16.48883,-12.50217 16.09514,30.86552 m -93.16869,-23.40481 23.84235,17.23753 m -23.84235,-17.23753 -20.00846,0.12853 m -0.82455,-5.41269 0.82455,5.41269 m 140.48758,-5.14888 4.55235,11.41111 m -64.44675,-1.34933 -3.36834,19.48282 m 67.81509,-18.13349 13.85225,-2.45787 m -158.89218,-3.80442 -3.31082,19.97445 m 148.35075,-13.71223 -7.81137,19.36759 m -24.05141,-2.35357 -32.53047,3.97105 m -36.79587,-10.13833 2.03823,8.65271 m 31.3358,-1.36596 -27.74774,4.04002 m 63.70005,-5.15949 12.92908,6.87068 m -48.88139,-5.75121 3.42184,2.85158 m 0,1e-5 19.99792,45.17742 M 75.04729,138.42214 40.68192,153.46665 m 34.36537,-15.04451 3.58806,2.67406 m -52.78792,-8.46129 14.83449,20.83183 m 37.95343,-12.37046 6.508859,45.35656 m 81.242601,-48.16247 8.48013,13.04999 m -8.48013,-13.04999 -11.12233,4.51711 m 0,0 -25.46163,42.2777 M 40.68192,153.46675 61.337559,176.571 m 0,0 23.80665,9.88184 M 121.06838,21.161957 H 105"
           stroke="#000000"
           stroke-width="0.529167"
           style="fill:none;fill-opacity:1;stroke:#ffffff;stroke-width:4.26444;stroke-linecap:butt;stroke-linejoin:miter;stroke-dasharray:none;stroke-opacity:1" /></g><g
         id="g9"
         style="display:inline;fill:none;fill-opacity:1;stroke:#ffffff;stroke-linejoin:miter;stroke-opacity:1"
         transform="matrix(0.9002207,0,0,0.9002207,3.5577378,22.79226)"><path
           id="path3"
           style="fill:#000000;fill-opacity:1;stroke:#000000;stroke-width:2.0517;stroke-linecap:round;stroke-linejoin:miter;stroke-dasharray:none;stroke-opacity:1"
           d="m 507.05925,153.91252 c 16.15881,10.47645 33.25475,19.46399 50.80995,27.38094 15.07706,6.79937 30.52927,12.82505 46.4347,17.36008 5.18011,1.47698 10.40552,2.7951 15.6664,3.95188 l -17.64235,17.36008 c -15.10579,-5.50241 -30.07284,-11.38568 -44.88215,-17.64235 -7.12031,-3.00821 -14.20607,-6.10359 -21.1708,-9.45631 -10.09104,-4.85769 -19.91608,-10.24986 -29.63916,-15.80755 -7.87385,-4.50067 -15.68455,-9.11181 -23.42904,-13.8316 l 2.54049,-24.41702 c 6.8922,5.32428 14.00425,10.36395 21.31196,15.10185 z"
           transform="matrix(1.2340819,0,0,1.2340819,-581.10425,-94.261549)" /></g><g
         id="g6"
         style="display:inline;fill:#969696;fill-opacity:1;stroke:none;stroke-linejoin:miter"
         transform="matrix(1.6276239,0,0,1.5903431,-460.00946,-83.072081)"><path
           id="path6"
           style="fill:#969696;fill-opacity:1;stroke:none;stroke-width:1.729;stroke-linecap:round;stroke-linejoin:miter;stroke-dasharray:none;stroke-opacity:1"
           d="m 405.00283,136.8885 c 2.23843,2.21706 4.37311,4.5755 5.98072,7.28502 1.07626,1.81396 1.91044,3.78485 2.3223,5.85347 0.25789,1.29527 0.34359,2.66732 -0.0954,3.91292 -0.45574,1.29314 -1.44515,2.34349 -2.57681,3.11761 -0.76899,0.52604 -1.61061,0.94097 -2.48134,1.27249 -2.36341,0.89984 -4.91681,1.18203 -7.4441,1.2725 -2.69479,0.0965 -5.39436,-0.0162 -8.08033,-0.2545 -8.53468,-0.75705 -16.91532,-2.7777 -25.09993,-5.31266 -19.33682,-5.98905 -37.69945,-14.8598 -55.06718,-25.259 -9.42844,-5.64542 -18.63868,-11.79194 -26.56329,-19.40553 -2.41104,-2.31641 -4.69988,-4.76662 -6.74423,-7.41227 -1.77615,-2.298573 -3.39829,-4.820058 -3.97653,-7.666774 -0.21681,-1.067374 -0.28117,-2.17764 -0.0636,-3.244861 0.41125,-2.017274 1.82779,-3.747146 3.59479,-4.803663 2.1672,-1.295801 4.76418,-1.636158 7.28504,-1.78149 3.67012,-0.211589 7.35858,-0.06895 11.00706,0.381748 2.28846,0.282695 4.56196,0.6864 6.80784,1.208867 l 3.56298,-3.531167 c -2.02943,-0.853081 -4.11351,-1.576129 -6.23522,-2.163239 -2.24205,-0.620411 -4.52324,-1.088478 -6.80784,-1.526992 -3.31822,-0.636909 -6.64828,-1.212567 -9.98908,-1.717868 -3.66777,-0.554757 -7.36121,-1.02555 -11.07069,-1.017995 -2.5445,0.0052 -5.09609,0.237416 -7.57132,0.827121 -1.58201,0.376903 -3.14615,0.907072 -4.51736,1.78149 -1.07991,0.68866 -2.04947,1.618419 -2.54499,2.799488 -0.54209,1.292062 -0.47069,2.762656 -0.19087,4.135604 0.52648,2.583184 1.74486,4.978963 3.18123,7.189589 3.19999,4.924903 7.49325,9.040372 11.96144,12.852182 14.60744,12.4616 31.39446,22.10101 48.48201,30.85797 15.52614,7.95677 31.4149,15.25833 47.84574,21.12339 10.5239,3.75655 21.29135,6.92682 32.32135,8.71659 4.00203,0.64938 8.03733,1.11646 12.0887,1.27249 3.16226,0.12179 6.37514,0.0476 9.41644,-0.82712 1.861,-0.53527 3.68784,-1.40556 4.96274,-2.86311 1.15354,-1.3188 1.78594,-3.08469 1.71786,-4.83548 -0.0515,-1.32388 -0.48484,-2.60462 -1.01801,-3.81748 -1.82427,-4.14987 -4.81768,-7.66957 -7.95316,-10.94344 -6.93239,-7.23836 -14.77591,-13.60318 -23.28662,-18.89653 l -0.12724,5.21722 c 2.42994,1.94252 4.7566,4.01421 6.9669,6.20341 z" /></g></g></g></svg>
